<?xml version="1.0" encoding="utf-8"?>
<!-- Generator: Adobe Illustrator 16.0.0, SVG Export Plug-In . SVG Version: 6.00 Build 0)  -->
<!DOCTYPE svg PUBLIC "-//W3C//DTD SVG 1.1//EN" "http://www.w3.org/Graphics/SVG/1.1/DTD/svg11.dtd">
<svg version="1.1" id="Calque_1" xmlns="http://www.w3.org/2000/svg" xmlns:xlink="http://www.w3.org/1999/xlink" x="0px" y="0px"
	 width="52px" height="52px" viewBox="29.393 29.689 52 52" enable-background="new 29.393 29.689 52 52" xml:space="preserve">
<g>
	<path fill="#FFFFFF" d="M29.393,47.689c0-9.941,8.059-18,18-18h16c9.941,0,18,8.059,18,18v16c0,9.94-8.059,18-18,18h-16
		c-9.941,0-18-8.06-18-18V47.689z"/>
</g>
<path fill="#76A728" d="M55.393,56.689l6,9h-12L55.393,56.689z M55.393,60.289l-2.26,3.4h4.52L55.393,60.289z M54.333,54.249
	c-0.147-0.137-0.266-0.303-0.348-0.487s-0.126-0.383-0.129-0.584c-0.003-0.202,0.034-0.401,0.109-0.588
	c0.075-0.187,0.188-0.356,0.33-0.499c0.143-0.143,0.312-0.255,0.499-0.331c0.187-0.075,0.387-0.112,0.588-0.109
	c0.202,0.003,0.4,0.048,0.584,0.13s0.35,0.2,0.487,0.348c0.265,0.284,0.409,0.66,0.402,1.049s-0.164,0.759-0.439,1.034
	c-0.274,0.275-0.646,0.432-1.034,0.439C54.994,54.658,54.617,54.514,54.333,54.249L54.333,54.249z M48.674,46.472l1.415,1.415
	c-1.406,1.407-2.196,3.314-2.196,5.303c0,1.989,0.79,3.896,2.196,5.303l-1.415,1.415c-0.882-0.883-1.582-1.93-2.06-3.082
	c-0.478-1.153-0.723-2.388-0.723-3.636c0-1.248,0.246-2.483,0.723-3.636C47.092,48.402,47.792,47.354,48.674,46.472L48.674,46.472z
	 M62.11,46.472c0.882,0.882,1.582,1.93,2.06,3.082c0.478,1.153,0.723,2.388,0.723,3.636c0,1.248-0.245,2.483-0.723,3.636
	c-0.478,1.152-1.178,2.199-2.06,3.082l-1.415-1.415c1.406-1.406,2.196-3.314,2.196-5.303c0-1.989-0.79-3.896-2.196-5.303
	L62.11,46.472L62.11,46.472z M51.503,49.3l1.414,1.414c-0.325,0.325-0.583,0.71-0.759,1.135s-0.267,0.88-0.267,1.34
	c0,0.459,0.091,0.915,0.267,1.339c0.176,0.424,0.434,0.811,0.759,1.135l-1.414,1.414c-1.031-1.031-1.611-2.43-1.611-3.889
	C49.892,51.73,50.472,50.332,51.503,49.3L51.503,49.3z M59.281,49.3c1.031,1.031,1.611,2.43,1.611,3.889
	c0,1.458-0.58,2.857-1.611,3.889l-1.414-1.414c0.324-0.325,0.583-0.711,0.759-1.135c0.176-0.425,0.267-0.88,0.267-1.339
	c0-0.46-0.091-0.915-0.267-1.34s-0.435-0.811-0.759-1.135L59.281,49.3z"/>
</svg>
