<?xml version="1.0" encoding="utf-8"?>
<!-- Generator: Adobe Illustrator 16.0.0, SVG Export Plug-In . SVG Version: 6.00 Build 0)  -->
<!DOCTYPE svg PUBLIC "-//W3C//DTD SVG 1.1//EN" "http://www.w3.org/Graphics/SVG/1.1/DTD/svg11.dtd">
<svg version="1.1" id="Calque_1" xmlns="http://www.w3.org/2000/svg" xmlns:xlink="http://www.w3.org/1999/xlink" x="0px" y="0px"
	 width="52px" height="52px" viewBox="29 29 52 52" enable-background="new 29 29 52 52" xml:space="preserve">
<g>
	<path fill="#FFFFFF" d="M29,47c0-9.941,8.059-18,18-18h16c9.941,0,18,8.059,18,18v16c0,9.941-8.059,18-18,18H47
		c-9.941,0-18-8.059-18-18V47z"/>
</g>
<path fill="#FF7907" d="M58.414,52.438c-0.424-0.411-0.697-0.958-0.773-1.551l-0.394-3.083l-2.67,1.486
	c-0.514,0.286-1.107,0.382-1.683,0.273l-2.989-0.57l0.558,3.056c0.107,0.587,0.013,1.195-0.267,1.72l-1.453,2.73l3.015,0.402
	c0.579,0.078,1.114,0.357,1.516,0.79l2.091,2.257l1.307-2.807c0.251-0.539,0.676-0.975,1.203-1.23l2.746-1.336L58.414,52.438
	L58.414,52.438z M58.438,58.002l-2.165,4.649c-0.041,0.088-0.102,0.165-0.178,0.223c-0.076,0.059-0.166,0.097-0.26,0.112
	s-0.19,0.007-0.28-0.024c-0.09-0.031-0.172-0.085-0.237-0.155l-3.464-3.739c-0.092-0.1-0.215-0.164-0.349-0.182l-4.995-0.668
	c-0.094-0.013-0.184-0.049-0.262-0.104c-0.078-0.057-0.141-0.131-0.184-0.219c-0.043-0.086-0.065-0.182-0.064-0.279
	c0.001-0.098,0.025-0.193,0.071-0.279l2.408-4.523c0.064-0.121,0.085-0.261,0.061-0.396l-0.922-5.063
	c-0.018-0.096-0.012-0.194,0.017-0.288c0.028-0.093,0.078-0.178,0.146-0.247c0.067-0.069,0.15-0.12,0.241-0.149
	s0.188-0.035,0.281-0.017l4.952,0.943c0.132,0.025,0.269,0.003,0.387-0.062l4.424-2.462c0.084-0.046,0.178-0.072,0.272-0.073
	c0.096-0.001,0.189,0.021,0.274,0.065c0.085,0.044,0.157,0.109,0.213,0.189c0.055,0.08,0.09,0.171,0.103,0.268l0.652,5.106
	c0.018,0.136,0.081,0.262,0.179,0.357l3.657,3.542c0.068,0.067,0.121,0.15,0.151,0.243s0.039,0.191,0.024,0.287
	c-0.016,0.096-0.053,0.188-0.11,0.266c-0.057,0.078-0.132,0.141-0.218,0.182l-4.547,2.214
	C58.594,57.777,58.496,57.877,58.438,58.002L58.438,58.002z M59.218,59.929l1.383-1.414l4.149,4.242l-1.383,1.415L59.218,59.929
	L59.218,59.929z"/>
</svg>
