<?xml version="1.0" encoding="utf-8"?>
<!-- Generator: Adobe Illustrator 16.0.0, SVG Export Plug-In . SVG Version: 6.00 Build 0)  -->
<!DOCTYPE svg PUBLIC "-//W3C//DTD SVG 1.1//EN" "http://www.w3.org/Graphics/SVG/1.1/DTD/svg11.dtd">
<svg version="1.1" id="Calque_1" xmlns="http://www.w3.org/2000/svg" xmlns:xlink="http://www.w3.org/1999/xlink" x="0px" y="0px"
	 width="52px" height="52px" viewBox="29 29 52 52" enable-background="new 29 29 52 52" xml:space="preserve">
<g>
	<path fill="#FFFFFF" d="M29,47c0-9.941,8.059-18,18-18h16c9.941,0,18,8.059,18,18v16c0,9.941-8.059,18-18,18H47
		c-9.941,0-18-8.059-18-18V47z"/>
</g>
<path fill="#D935DC" d="M60.523,55.485l-0.691-0.707l-9.683,9.9H46v-4.243l11.064-11.314l5.533,5.657
	c0.184,0.188,0.286,0.442,0.286,0.707s-0.103,0.519-0.286,0.707l-6.915,7.071l-1.384-1.414L60.523,55.485L60.523,55.485z
	 M58.448,53.364l-1.384-1.414l-9.108,9.313v1.415h1.383L58.448,53.364L58.448,53.364z M61.215,46.293l2.767,2.828
	c0.183,0.188,0.286,0.442,0.286,0.707s-0.104,0.52-0.286,0.707l-1.384,1.415l-4.149-4.243l1.384-1.414
	C60.015,46.105,60.264,46,60.523,46C60.782,46,61.031,46.105,61.215,46.293L61.215,46.293z"/>
</svg>
