<?xml version="1.0" encoding="utf-8"?>
<!-- Generator: Adobe Illustrator 16.0.0, SVG Export Plug-In . SVG Version: 6.00 Build 0)  -->
<!DOCTYPE svg PUBLIC "-//W3C//DTD SVG 1.1//EN" "http://www.w3.org/Graphics/SVG/1.1/DTD/svg11.dtd">
<svg version="1.1" id="Calque_1" xmlns="http://www.w3.org/2000/svg" xmlns:xlink="http://www.w3.org/1999/xlink" x="0px" y="0px"
	 width="52px" height="52px" viewBox="29 29 52 52" enable-background="new 29 29 52 52" xml:space="preserve">
<g>
	<path fill="#FFFFFF" d="M29,47c0-9.941,8.059-18,18-18h16c9.941,0,18,8.059,18,18v16c0,9.941-8.059,18-18,18H47
		c-9.941,0-18-8.059-18-18V47z"/>
</g>
<path fill="#BFBFBF" d="M49.59,47.257L57.163,55l-1.383,1.414l-3.37-3.446c-0.433,0.751-0.614,1.625-0.517,2.491
	c0.098,0.866,0.469,1.675,1.058,2.305c0.589,0.63,1.363,1.046,2.204,1.186c0.841,0.139,1.704-0.007,2.457-0.415
	s1.354-1.057,1.714-1.847c0.36-0.79,0.457-1.678,0.277-2.53c-0.179-0.852-0.625-1.62-1.271-2.188
	c-0.646-0.569-1.455-0.906-2.307-0.961l-1.765-1.805c1.334-0.366,2.752-0.239,4.003,0.359c1.252,0.598,2.258,1.628,2.839,2.909
	c0.582,1.281,0.703,2.731,0.343,4.094c-0.361,1.363-1.181,2.553-2.314,3.359c-1.135,0.806-2.511,1.177-3.887,1.048
	c-1.375-0.129-2.663-0.75-3.634-1.754s-1.566-2.326-1.678-3.733c-0.112-1.408,0.265-2.811,1.065-3.962l-1.398-1.429
	c-1.166,1.538-1.745,3.457-1.627,5.399s0.924,3.773,2.267,5.152c1.343,1.378,3.131,2.208,5.03,2.336
	c1.898,0.127,3.777-0.457,5.285-1.645s2.541-2.896,2.906-4.805c0.365-1.91,0.036-3.89-0.924-5.57
	c-0.96-1.68-2.485-2.944-4.291-3.557c-1.807-0.613-3.77-0.531-5.521,0.229l-1.469-1.501c1.396-0.746,2.949-1.134,4.524-1.132
	c5.401,0,9.78,4.477,9.78,10c0,5.523-4.379,10-9.78,10S46,60.523,46,55c-0.001-1.482,0.32-2.946,0.941-4.286
	S48.467,48.194,49.59,47.257z"/>
</svg>
